<?xml version="1.0" encoding="UTF-8"?>
<!DOCTYPE svg PUBLIC "-//W3C//DTD SVG 1.1//EN" "http://www.w3.org/Graphics/SVG/1.1/DTD/svg11.dtd">
<svg xmlns="http://www.w3.org/2000/svg" version="1.1" width="512px" height="512px" style="shape-rendering:geometricPrecision; text-rendering:geometricPrecision; image-rendering:optimizeQuality; fill-rule:evenodd; clip-rule:evenodd" xmlns:xlink="http://www.w3.org/1999/xlink">
<g><path style="opacity:0.984" fill="#808080" d="M 337.5,106.5 C 326.5,106.5 315.5,106.5 304.5,106.5C 299.489,106.666 294.489,106.499 289.5,106C 286.804,105.31 284.637,103.81 283,101.5C 281.396,93.2704 281.063,84.9371 282,76.5C 283.5,73.6667 285.667,71.5 288.5,70C 310.167,69.3333 331.833,69.3333 353.5,70C 356.333,71.5 358.5,73.6667 360,76.5C 360.937,84.9371 360.604,93.2704 359,101.5C 357.457,103.378 355.624,104.878 353.5,106C 348.177,106.499 342.844,106.666 337.5,106.5 Z"/></g>
<g><path style="opacity:0.959" fill="#cdcaca" d="M 304.5,106.5 C 315.5,106.5 326.5,106.5 337.5,106.5C 337.5,112.833 337.5,119.167 337.5,125.5C 326.5,125.5 315.5,125.5 304.5,125.5C 304.5,119.167 304.5,112.833 304.5,106.5 Z"/></g>
<g><path style="opacity:0.993" fill="#fd6b65" d="M 304.5,125.5 C 315.5,125.5 326.5,125.5 337.5,125.5C 362.197,128.177 385.197,135.843 406.5,148.5C 418.034,158.019 429.367,168.019 440.5,178.5C 478.896,225.991 488.729,278.991 470,337.5C 446.854,395.007 404.687,429.174 343.5,440C 315.593,443.276 288.26,440.609 261.5,432C 237.682,424.061 214.016,415.728 190.5,407C 196.667,400.167 202.833,393.333 209,386.5C 210.675,379.178 207.842,374.845 200.5,373.5C 151.849,392.506 119.849,377.173 104.5,327.5C 104.833,327.167 105.167,326.833 105.5,326.5C 123.141,335.768 140.808,335.601 158.5,326C 165.338,322 169.671,316.166 171.5,308.5C 169.732,301.683 165.232,298.683 158,299.5C 109.579,316.102 72.5793,302.436 47,258.5C 42.8138,250.962 39.3138,243.129 36.5,235C 36.8333,234.5 37.1667,234 37.5,233.5C 54.3564,242.603 71.6897,243.769 89.5,237C 99.8333,231.333 110.167,225.667 120.5,220C 136.134,214.092 152.134,212.925 168.5,216.5C 164.902,202.405 155.902,193.905 141.5,191C 132.218,189.58 122.885,188.58 113.5,188C 123.822,174.83 137.156,166.164 153.5,162C 176.135,158.17 198.802,154.504 221.5,151C 227.285,149.738 232.952,148.072 238.5,146C 251.383,139.559 264.716,134.226 278.5,130C 287.054,127.789 295.721,126.289 304.5,125.5 Z"/></g>
<g><path style="opacity:0.96" fill="#807f7f" d="M 440.5,178.5 C 429.367,168.019 418.034,158.019 406.5,148.5C 416.344,136.896 427.678,135.396 440.5,144C 451.081,155.633 451.081,167.133 440.5,178.5 Z"/></g>
<g><path style="opacity:1" fill="#f1f1f1" d="M 307.5,169.5 C 356.647,166.82 394.147,186.153 420,227.5C 438.268,261.99 439.268,296.99 423,332.5C 398.465,377.695 360.299,398.862 308.5,396C 249.081,385.017 215.581,349.517 208,289.5C 207.898,235.183 232.731,197.35 282.5,176C 290.822,173.337 299.156,171.17 307.5,169.5 Z"/></g>
<g><path style="opacity:1" fill="#838383" d="M 316.5,185.5 C 320.355,184.845 323.188,186.179 325,189.5C 325.667,193.833 325.667,198.167 325,202.5C 324.5,203.667 323.667,204.5 322.5,205C 320.167,205.667 317.833,205.667 315.5,205C 314.874,204.25 314.374,203.416 314,202.5C 313.333,197.833 313.333,193.167 314,188.5C 315.045,187.627 315.878,186.627 316.5,185.5 Z"/></g>
<g><path style="opacity:1" fill="#818181" d="M 252.5,212.5 C 254.199,212.34 255.866,212.506 257.5,213C 260.333,215.833 263.167,218.667 266,221.5C 267.329,227.834 264.829,230.668 258.5,230C 255.667,227.167 252.833,224.333 250,221.5C 248.779,217.718 249.613,214.718 252.5,212.5 Z"/></g>
<g><path style="opacity:1" fill="#848484" d="M 381.5,212.5 C 388.162,211.997 390.662,214.997 389,221.5C 386.167,224.333 383.333,227.167 380.5,230C 374.199,231.281 371.365,228.781 372,222.5C 374.696,218.639 377.863,215.306 381.5,212.5 Z"/></g>
<g><path style="opacity:1" fill="#828282" d="M 357.5,235.5 C 363.831,234.029 366.998,236.362 367,242.5C 357.864,252.637 348.364,262.47 338.5,272C 342.706,280.411 342.206,288.578 337,296.5C 327.776,304.672 317.943,305.505 307.5,299C 299.327,289.763 298.494,279.93 305,269.5C 307.892,266.943 311.059,264.776 314.5,263C 319.859,262.641 325.193,262.641 330.5,263C 339.702,253.965 348.702,244.798 357.5,235.5 Z"/></g>
<g><path style="opacity:1" fill="#f0f0f0" d="M 316.5,274.5 C 329.134,273.94 332.467,279.106 326.5,290C 315.903,293.405 311.403,289.572 313,278.5C 314.376,277.295 315.542,275.962 316.5,274.5 Z"/></g>
<g><path style="opacity:1" fill="#818181" d="M 224.5,277.5 C 229.844,277.334 235.177,277.501 240.5,278C 243.413,281.74 243.08,285.074 239.5,288C 234.5,288.667 229.5,288.667 224.5,288C 221.868,284.432 221.868,280.932 224.5,277.5 Z"/></g>
<g><path style="opacity:1" fill="#818181" d="M 398.5,277.5 C 403.844,277.334 409.177,277.501 414.5,278C 417.413,281.74 417.08,285.074 413.5,288C 408.5,288.667 403.5,288.667 398.5,288C 395.868,284.432 395.868,280.932 398.5,277.5 Z"/></g>
<g><path style="opacity:1" fill="#828282" d="M 258.5,335.5 C 264.82,335.32 267.32,338.32 266,344.5C 263.167,347.333 260.333,350.167 257.5,353C 251.199,354.281 248.365,351.781 249,345.5C 252.371,342.297 255.538,338.964 258.5,335.5 Z"/></g>
<g><path style="opacity:1" fill="#828282" d="M 375.5,335.5 C 377.655,335.372 379.655,335.872 381.5,337C 384,339.5 386.5,342 389,344.5C 390.666,351.163 388.166,353.996 381.5,353C 375.892,349.597 373.059,344.764 373,338.5C 373.698,337.309 374.531,336.309 375.5,335.5 Z"/></g>
<g><path style="opacity:1" fill="#838383" d="M 317.5,359.5 C 320.961,359.146 323.461,360.479 325,363.5C 325.667,367.833 325.667,372.167 325,376.5C 321.333,381.833 317.667,381.833 314,376.5C 313.333,372.167 313.333,367.833 314,363.5C 314.69,361.65 315.856,360.316 317.5,359.5 Z"/></g>
</svg>
